<svg width="32" height="22" viewBox="0 0 32 22" fill="none" xmlns="http://www.w3.org/2000/svg">
<g clip-path="url(#clip0_367_2268)">
<path d="M-8.03198 0H40.097V22.0591H-8.03198V0Z" fill="#000066"/>
<path d="M-8.03198 0V2.46626L34.7162 22.0592H40.097V19.593L-2.65119 0H-8.03198ZM40.097 0V2.46622L-2.65119 22.0591H-8.03198V19.5929L34.7162 0H40.097Z" fill="white"/>
<path d="M12.0217 0V22.0591H20.0432V0H12.0217ZM-8.03198 7.35303V14.7061H40.097V7.35303H-8.03198Z" fill="white"/>
<path d="M-8.03198 8.82364V13.2355H40.097V8.82364H-8.03198ZM13.6261 0V22.0591H18.4389V0H13.6261ZM-8.03198 22.0591L8.011 14.7061H11.5982L-4.44475 22.0591H-8.03198ZM-8.03198 0L8.011 7.35303H4.42377L-8.03198 1.64423V0ZM20.4668 7.35303L36.5097 0H40.097L24.054 7.35303H20.4668ZM40.097 22.0591L24.054 14.7061H27.6412L40.097 20.415V22.0591Z" fill="#CC0000"/>
</g>
<defs>
<clipPath id="clip0_367_2268">
<rect width="32" height="22" rx="3" fill="white"/>
</clipPath>
</defs>
</svg>
