<svg width="40" height="40" viewBox="0 0 40 40" fill="none" xmlns="http://www.w3.org/2000/svg">
<path d="M13.3334 20.3333H25" stroke="url(#paint0_linear_3208_1911)" stroke-width="3" stroke-linecap="round" stroke-linejoin="round"/>
<path d="M13.3334 27H20.6334" stroke="url(#paint1_linear_3208_1911)" stroke-width="3" stroke-linecap="round" stroke-linejoin="round"/>
<path d="M16.6667 10H23.3334C26.6667 10 26.6667 8.33334 26.6667 6.66668C26.6667 3.33334 25 3.33334 23.3334 3.33334H16.6667C15 3.33334 13.3334 3.33334 13.3334 6.66668C13.3334 10 15 10 16.6667 10Z" stroke="url(#paint2_linear_3208_1911)" stroke-width="3" stroke-linecap="round" stroke-linejoin="round"/>
<path d="M26.6667 6.70001C32.2167 7.00001 35 9.05001 35 16.6667V26.6667C35 33.3333 33.3333 36.6667 25 36.6667H15C6.66667 36.6667 5 33.3333 5 26.6667V16.6667C5 9.06668 7.78333 7.00001 13.3333 6.70001" stroke="url(#paint3_linear_3208_1911)" stroke-width="3" stroke-linecap="round" stroke-linejoin="round"/>
<defs>
<linearGradient id="paint0_linear_3208_1911" x1="19.786" y1="20.8706" x2="24.0193" y2="23.1884" gradientUnits="userSpaceOnUse">
<stop stop-color="#6031D9"/>
<stop offset="1" stop-color="#A761FF"/>
</linearGradient>
<linearGradient id="paint1_linear_3208_1911" x1="17.3708" y1="27.5372" x2="20.4521" y2="28.5929" gradientUnits="userSpaceOnUse">
<stop stop-color="#6031D9"/>
<stop offset="1" stop-color="#A761FF"/>
</linearGradient>
<linearGradient id="paint2_linear_3208_1911" x1="20.7078" y1="6.9149" x2="26.9413" y2="7.5" gradientUnits="userSpaceOnUse">
<stop stop-color="#6031D9"/>
<stop offset="1" stop-color="#A761FF"/>
</linearGradient>
<linearGradient id="paint3_linear_3208_1911" x1="21.5924" y1="22.7991" x2="35.7102" y2="23.4624" gradientUnits="userSpaceOnUse">
<stop stop-color="#6031D9"/>
<stop offset="1" stop-color="#A761FF"/>
</linearGradient>
</defs>
</svg>
