<svg width="40" height="40" viewBox="0 0 40 40" fill="none" xmlns="http://www.w3.org/2000/svg">
<path d="M30 31.4333H28.7333C27.4 31.4333 26.1333 31.95 25.2 32.8833L22.35 35.7C21.05 36.9833 18.9334 36.9833 17.6334 35.7L14.7833 32.8833C13.85 31.95 12.5667 31.4333 11.25 31.4333H10C7.23333 31.4333 5 29.2167 5 26.4833V8.29996C5 5.56662 7.23333 3.35001 10 3.35001H30C32.7667 3.35001 35 5.56662 35 8.29996V26.4833C35 29.2 32.7667 31.4333 30 31.4333Z" stroke="url(#paint0_linear_3208_1903)" stroke-width="3" stroke-linecap="round" stroke-linejoin="round"/>
<path d="M20 16.6667C22.1447 16.6667 23.8834 14.928 23.8834 12.7833C23.8834 10.6386 22.1447 8.90005 20 8.90005C17.8553 8.90005 16.1166 10.6386 16.1166 12.7833C16.1166 14.928 17.8553 16.6667 20 16.6667Z" stroke="url(#paint1_linear_3208_1903)" stroke-width="3" stroke-linecap="round" stroke-linejoin="round"/>
<path d="M26.6666 26.1C26.6666 23.1 23.6833 20.6667 20 20.6667C16.3166 20.6667 13.3333 23.1 13.3333 26.1" stroke="url(#paint2_linear_3208_1903)" stroke-width="3" stroke-linecap="round" stroke-linejoin="round"/>
<defs>
<linearGradient id="paint0_linear_3208_1903" x1="21.5924" y1="21.2466" x2="35.7162" y2="21.8435" gradientUnits="userSpaceOnUse">
<stop stop-color="#6031D9"/>
<stop offset="1" stop-color="#A761FF"/>
</linearGradient>
<linearGradient id="paint1_linear_3208_1903" x1="20.4122" y1="13.0725" x2="24.0673" y2="13.2441" gradientUnits="userSpaceOnUse">
<stop stop-color="#6031D9"/>
<stop offset="1" stop-color="#A761FF"/>
</linearGradient>
<linearGradient id="paint2_linear_3208_1903" x1="20.7077" y1="23.5856" x2="26.9138" y2="24.3004" gradientUnits="userSpaceOnUse">
<stop stop-color="#6031D9"/>
<stop offset="1" stop-color="#A761FF"/>
</linearGradient>
</defs>
</svg>
