<svg width="40" height="40" viewBox="0 0 40 40" fill="none" xmlns="http://www.w3.org/2000/svg">
<path d="M7.09998 18.3667V26.65C7.09998 29.6834 7.09998 29.6834 9.96664 31.6167L17.85 36.1667C19.0333 36.85 20.9666 36.85 22.15 36.1667L30.0333 31.6167C32.9 29.6834 32.9 29.6834 32.9 26.65V18.3667C32.9 15.3334 32.9 15.3334 30.0333 13.4L22.15 8.85002C20.9666 8.16669 19.0333 8.16669 17.85 8.85002L9.96664 13.4C7.09998 15.3334 7.09998 15.3334 7.09998 18.3667Z" stroke="url(#paint0_linear_3208_1985)" stroke-width="3" stroke-linecap="round" stroke-linejoin="round"/>
<path d="M29.1667 12.7167V8.33337C29.1667 5.00004 27.5 3.33337 24.1667 3.33337H15.8334C12.5 3.33337 10.8334 5.00004 10.8334 8.33337V12.6" stroke="url(#paint1_linear_3208_1985)" stroke-width="3" stroke-linecap="round" stroke-linejoin="round"/>
<path d="M21.05 18.3167L22 19.8001C22.15 20.0334 22.4833 20.2667 22.7333 20.3334L24.4333 20.7667C25.4833 21.0334 25.7666 21.9334 25.0833 22.7667L23.9666 24.1167C23.8 24.3334 23.6666 24.7167 23.6833 24.9834L23.7833 26.7334C23.85 27.8167 23.0833 28.3667 22.0833 27.9667L20.45 27.3167C20.2 27.2167 19.7833 27.2167 19.5333 27.3167L17.9 27.9667C16.9 28.3667 16.1333 27.8001 16.2 26.7334L16.3 24.9834C16.3166 24.7167 16.1833 24.3167 16.0166 24.1167L14.9 22.7667C14.2166 21.9334 14.5 21.0334 15.55 20.7667L17.25 20.3334C17.5166 20.2667 17.85 20.0167 17.9833 19.8001L18.9333 18.3167C19.5333 17.4167 20.4666 17.4167 21.05 18.3167Z" stroke="url(#paint2_linear_3208_1985)" stroke-width="3" stroke-linecap="round" stroke-linejoin="round"/>
<defs>
<linearGradient id="paint0_linear_3208_1985" x1="21.3694" y1="23.5636" x2="33.5154" y2="24.0825" gradientUnits="userSpaceOnUse">
<stop stop-color="#6031D9"/>
<stop offset="1" stop-color="#A761FF"/>
</linearGradient>
<linearGradient id="paint1_linear_3208_1985" x1="20.9731" y1="8.37442" x2="29.5477" y2="9.16066" gradientUnits="userSpaceOnUse">
<stop stop-color="#6031D9"/>
<stop offset="1" stop-color="#A761FF"/>
</linearGradient>
<linearGradient id="paint2_linear_3208_1985" x1="20.5716" y1="23.2588" x2="25.7126" y2="23.5109" gradientUnits="userSpaceOnUse">
<stop stop-color="#6031D9"/>
<stop offset="1" stop-color="#A761FF"/>
</linearGradient>
</defs>
</svg>
