<svg width="40" height="40" viewBox="0 0 40 40" fill="none" xmlns="http://www.w3.org/2000/svg">
<path d="M12.1 3.33331H27.8833C28.9666 3.33331 29.9333 3.36669 30.8 3.48336C35.4166 4.00002 36.6666 6.16666 36.6666 12.1V22.6333C36.6666 28.5667 35.4166 30.7333 30.8 31.25C29.9333 31.3666 28.9833 31.4 27.8833 31.4H12.1C11.0166 31.4 10.05 31.3666 9.1833 31.25C4.56663 30.7333 3.31665 28.5667 3.31665 22.6333V12.1C3.31665 6.16666 4.56663 4.00002 9.1833 3.48336C10.05 3.36669 11.0166 3.33331 12.1 3.33331Z" stroke="url(#paint0_linear_3208_1920)" stroke-width="3" stroke-linecap="round" stroke-linejoin="round"/>
<path d="M22.6333 13.8666H28.7666" stroke="url(#paint1_linear_3208_1920)" stroke-width="3" stroke-linecap="round" stroke-linejoin="round"/>
<path d="M11.2333 23.5166H11.2666H28.7833" stroke="url(#paint2_linear_3208_1920)" stroke-width="3" stroke-linecap="round" stroke-linejoin="round"/>
<path d="M11.6666 36.6667H28.3333" stroke="url(#paint3_linear_3208_1920)" stroke-width="3" stroke-linecap="round" stroke-linejoin="round"/>
<path d="M11.9912 13.8333H12.0061" stroke="url(#paint4_linear_3208_1920)" stroke-width="3" stroke-linecap="round" stroke-linejoin="round"/>
<path d="M17.4908 13.8333H17.5058" stroke="url(#paint5_linear_3208_1920)" stroke-width="3" stroke-linecap="round" stroke-linejoin="round"/>
<defs>
<linearGradient id="paint0_linear_3208_1920" x1="21.7618" y1="18.4117" x2="37.4421" y2="19.2861" gradientUnits="userSpaceOnUse">
<stop stop-color="#6031D9"/>
<stop offset="1" stop-color="#A761FF"/>
</linearGradient>
<linearGradient id="paint1_linear_3208_1920" x1="26.0255" y1="14.4039" x2="28.6969" y2="15.1728" gradientUnits="userSpaceOnUse">
<stop stop-color="#6031D9"/>
<stop offset="1" stop-color="#A761FF"/>
</linearGradient>
<linearGradient id="paint2_linear_3208_1920" x1="20.9398" y1="24.0538" x2="25.8715" y2="28.1157" gradientUnits="userSpaceOnUse">
<stop stop-color="#6031D9"/>
<stop offset="1" stop-color="#A761FF"/>
</linearGradient>
<linearGradient id="paint3_linear_3208_1920" x1="20.8846" y1="37.2039" x2="25.7615" y2="41.0185" gradientUnits="userSpaceOnUse">
<stop stop-color="#6031D9"/>
<stop offset="1" stop-color="#A761FF"/>
</linearGradient>
<linearGradient id="paint4_linear_3208_1920" x1="12.0869" y1="13.8954" x2="12.8697" y2="13.9321" gradientUnits="userSpaceOnUse">
<stop stop-color="#6031D9"/>
<stop offset="1" stop-color="#A761FF"/>
</linearGradient>
<linearGradient id="paint5_linear_3208_1920" x1="17.5866" y1="13.8954" x2="18.3693" y2="13.9321" gradientUnits="userSpaceOnUse">
<stop stop-color="#6031D9"/>
<stop offset="1" stop-color="#A761FF"/>
</linearGradient>
</defs>
</svg>
